<mxfile host="Electron" agent="Mozilla/5.0 (Windows NT 10.0; Win64; x64) AppleWebKit/537.36 (KHTML, like Gecko) draw.io/26.0.15 Chrome/132.0.6834.196 Electron/34.2.0 Safari/537.36" version="26.0.15">
  <diagram name="Страница — 1" id="vmfIcmAL4DYdM5Rei_5w">
    <mxGraphModel dx="918" dy="634" grid="1" gridSize="10" guides="1" tooltips="1" connect="1" arrows="1" fold="1" page="1" pageScale="1" pageWidth="827" pageHeight="1169" math="0" shadow="0">
      <root>
        <mxCell id="0" />
        <mxCell id="1" parent="0" />
        <mxCell id="ULaO3nTSBAobQEeE-iv7-1" value="Безопасность данных" style="rounded=0;whiteSpace=wrap;html=1;" vertex="1" parent="1">
          <mxGeometry x="360" y="200" width="120" height="60" as="geometry" />
        </mxCell>
        <mxCell id="ULaO3nTSBAobQEeE-iv7-2" value="Публичные данные" style="rounded=0;whiteSpace=wrap;html=1;" vertex="1" parent="1">
          <mxGeometry x="54" y="360" width="120" height="60" as="geometry" />
        </mxCell>
        <mxCell id="ULaO3nTSBAobQEeE-iv7-3" value="Внутренние данные" style="rounded=0;whiteSpace=wrap;html=1;" vertex="1" parent="1">
          <mxGeometry x="254" y="360" width="120" height="60" as="geometry" />
        </mxCell>
        <mxCell id="ULaO3nTSBAobQEeE-iv7-4" value="Конфиденциальные данные" style="rounded=0;whiteSpace=wrap;html=1;" vertex="1" parent="1">
          <mxGeometry x="454" y="360" width="120" height="60" as="geometry" />
        </mxCell>
        <mxCell id="ULaO3nTSBAobQEeE-iv7-5" value="Секретные данные" style="rounded=0;whiteSpace=wrap;html=1;" vertex="1" parent="1">
          <mxGeometry x="654" y="360" width="120" height="60" as="geometry" />
        </mxCell>
        <mxCell id="ULaO3nTSBAobQEeE-iv7-6" value="" style="endArrow=classic;html=1;rounded=0;exitX=0;exitY=0.5;exitDx=0;exitDy=0;entryX=0.5;entryY=0;entryDx=0;entryDy=0;" edge="1" parent="1" source="ULaO3nTSBAobQEeE-iv7-1" target="ULaO3nTSBAobQEeE-iv7-2">
          <mxGeometry width="50" height="50" relative="1" as="geometry">
            <mxPoint x="270" y="310" as="sourcePoint" />
            <mxPoint x="320" y="260" as="targetPoint" />
          </mxGeometry>
        </mxCell>
        <mxCell id="ULaO3nTSBAobQEeE-iv7-7" value="" style="endArrow=classic;html=1;rounded=0;entryX=0.5;entryY=0;entryDx=0;entryDy=0;exitX=0.5;exitY=1;exitDx=0;exitDy=0;" edge="1" parent="1" source="ULaO3nTSBAobQEeE-iv7-1" target="ULaO3nTSBAobQEeE-iv7-3">
          <mxGeometry width="50" height="50" relative="1" as="geometry">
            <mxPoint x="270" y="310" as="sourcePoint" />
            <mxPoint x="320" y="260" as="targetPoint" />
          </mxGeometry>
        </mxCell>
        <mxCell id="ULaO3nTSBAobQEeE-iv7-8" value="" style="endArrow=classic;html=1;rounded=0;entryX=0.5;entryY=0;entryDx=0;entryDy=0;exitX=0.5;exitY=1;exitDx=0;exitDy=0;" edge="1" parent="1" source="ULaO3nTSBAobQEeE-iv7-1" target="ULaO3nTSBAobQEeE-iv7-4">
          <mxGeometry width="50" height="50" relative="1" as="geometry">
            <mxPoint x="270" y="310" as="sourcePoint" />
            <mxPoint x="320" y="260" as="targetPoint" />
          </mxGeometry>
        </mxCell>
        <mxCell id="ULaO3nTSBAobQEeE-iv7-9" value="" style="endArrow=classic;html=1;rounded=0;entryX=0.5;entryY=0;entryDx=0;entryDy=0;exitX=1;exitY=0.5;exitDx=0;exitDy=0;" edge="1" parent="1" source="ULaO3nTSBAobQEeE-iv7-1" target="ULaO3nTSBAobQEeE-iv7-5">
          <mxGeometry width="50" height="50" relative="1" as="geometry">
            <mxPoint x="270" y="310" as="sourcePoint" />
            <mxPoint x="320" y="260" as="targetPoint" />
          </mxGeometry>
        </mxCell>
        <mxCell id="ULaO3nTSBAobQEeE-iv7-10" value="Информация об объектах недвижимости" style="rounded=0;whiteSpace=wrap;html=1;" vertex="1" parent="1">
          <mxGeometry x="54" y="470" width="120" height="60" as="geometry" />
        </mxCell>
        <mxCell id="ULaO3nTSBAobQEeE-iv7-11" value="" style="endArrow=classic;html=1;rounded=0;exitX=0.5;exitY=1;exitDx=0;exitDy=0;entryX=0.5;entryY=0;entryDx=0;entryDy=0;" edge="1" parent="1" source="ULaO3nTSBAobQEeE-iv7-2" target="ULaO3nTSBAobQEeE-iv7-10">
          <mxGeometry width="50" height="50" relative="1" as="geometry">
            <mxPoint x="280" y="410" as="sourcePoint" />
            <mxPoint x="330" y="360" as="targetPoint" />
          </mxGeometry>
        </mxCell>
        <mxCell id="ULaO3nTSBAobQEeE-iv7-12" value="Риск: Утечка данных&amp;nbsp; (незначительный)&lt;div&gt;Риск: Искажение данных (незначительный)&lt;/div&gt;" style="rounded=0;whiteSpace=wrap;html=1;align=left;" vertex="1" parent="1">
          <mxGeometry x="54" y="560" width="156" height="60" as="geometry" />
        </mxCell>
        <mxCell id="ULaO3nTSBAobQEeE-iv7-13" value="" style="endArrow=classic;html=1;rounded=0;exitX=0.5;exitY=1;exitDx=0;exitDy=0;entryX=0.382;entryY=-0.002;entryDx=0;entryDy=0;entryPerimeter=0;" edge="1" parent="1" source="ULaO3nTSBAobQEeE-iv7-10" target="ULaO3nTSBAobQEeE-iv7-12">
          <mxGeometry width="50" height="50" relative="1" as="geometry">
            <mxPoint x="280" y="410" as="sourcePoint" />
            <mxPoint x="330" y="360" as="targetPoint" />
          </mxGeometry>
        </mxCell>
        <mxCell id="ULaO3nTSBAobQEeE-iv7-14" value="Данные о бронированиях" style="rounded=0;whiteSpace=wrap;html=1;" vertex="1" parent="1">
          <mxGeometry x="254" y="470" width="120" height="60" as="geometry" />
        </mxCell>
        <mxCell id="ULaO3nTSBAobQEeE-iv7-15" value="Риск: Утечка данных&amp;nbsp; (значительный)&lt;div&gt;Риск: Искажение данных (значительный)&lt;/div&gt;&lt;div&gt;Риск: Потеря данных&lt;/div&gt;&lt;div&gt;(значительный)&amp;nbsp;&lt;/div&gt;" style="rounded=0;whiteSpace=wrap;html=1;align=left;" vertex="1" parent="1">
          <mxGeometry x="254" y="560" width="156" height="110" as="geometry" />
        </mxCell>
        <mxCell id="ULaO3nTSBAobQEeE-iv7-16" value="" style="endArrow=classic;html=1;rounded=0;entryX=0.5;entryY=0;entryDx=0;entryDy=0;exitX=0.5;exitY=1;exitDx=0;exitDy=0;edgeStyle=orthogonalEdgeStyle;" edge="1" parent="1" source="ULaO3nTSBAobQEeE-iv7-14" target="ULaO3nTSBAobQEeE-iv7-15">
          <mxGeometry width="50" height="50" relative="1" as="geometry">
            <mxPoint x="220" y="530" as="sourcePoint" />
            <mxPoint x="270" y="480" as="targetPoint" />
          </mxGeometry>
        </mxCell>
        <mxCell id="ULaO3nTSBAobQEeE-iv7-17" value="" style="endArrow=classic;html=1;rounded=0;exitX=0.5;exitY=1;exitDx=0;exitDy=0;entryX=0.5;entryY=0;entryDx=0;entryDy=0;" edge="1" parent="1" source="ULaO3nTSBAobQEeE-iv7-3" target="ULaO3nTSBAobQEeE-iv7-14">
          <mxGeometry width="50" height="50" relative="1" as="geometry">
            <mxPoint x="240" y="530" as="sourcePoint" />
            <mxPoint x="290" y="480" as="targetPoint" />
          </mxGeometry>
        </mxCell>
        <mxCell id="ULaO3nTSBAobQEeE-iv7-18" value="Персональные данные клиентов" style="rounded=0;whiteSpace=wrap;html=1;" vertex="1" parent="1">
          <mxGeometry x="454" y="470" width="120" height="60" as="geometry" />
        </mxCell>
        <mxCell id="ULaO3nTSBAobQEeE-iv7-19" value="Риск: Утечка данных&amp;nbsp; (критический)&lt;div&gt;Риск: Искажение данных (критический)&lt;/div&gt;&lt;div&gt;Риск: Потеря данных&lt;/div&gt;&lt;div&gt;(критический)&lt;/div&gt;&lt;div&gt;Риск: Обесценивание данных&amp;nbsp;&lt;span style=&quot;background-color: transparent; color: light-dark(rgb(0, 0, 0), rgb(255, 255, 255));&quot;&gt;(незначительный)&amp;nbsp;&lt;/span&gt;&lt;span style=&quot;background-color: transparent; color: light-dark(rgb(0, 0, 0), rgb(255, 255, 255));&quot;&gt;&amp;nbsp;&lt;/span&gt;&lt;/div&gt;" style="rounded=0;whiteSpace=wrap;html=1;align=left;" vertex="1" parent="1">
          <mxGeometry x="454" y="560" width="156" height="140" as="geometry" />
        </mxCell>
        <mxCell id="ULaO3nTSBAobQEeE-iv7-20" value="" style="endArrow=classic;html=1;rounded=0;entryX=0.5;entryY=0;entryDx=0;entryDy=0;exitX=0.5;exitY=1;exitDx=0;exitDy=0;edgeStyle=orthogonalEdgeStyle;" edge="1" parent="1" source="ULaO3nTSBAobQEeE-iv7-18" target="ULaO3nTSBAobQEeE-iv7-19">
          <mxGeometry width="50" height="50" relative="1" as="geometry">
            <mxPoint x="300" y="530" as="sourcePoint" />
            <mxPoint x="350" y="480" as="targetPoint" />
          </mxGeometry>
        </mxCell>
        <mxCell id="ULaO3nTSBAobQEeE-iv7-21" value="" style="endArrow=classic;html=1;rounded=0;entryX=0.5;entryY=0;entryDx=0;entryDy=0;exitX=0.5;exitY=1;exitDx=0;exitDy=0;" edge="1" parent="1" source="ULaO3nTSBAobQEeE-iv7-4" target="ULaO3nTSBAobQEeE-iv7-18">
          <mxGeometry width="50" height="50" relative="1" as="geometry">
            <mxPoint x="300" y="530" as="sourcePoint" />
            <mxPoint x="350" y="480" as="targetPoint" />
          </mxGeometry>
        </mxCell>
        <mxCell id="ULaO3nTSBAobQEeE-iv7-22" value="Персональные данные клиентов" style="rounded=0;whiteSpace=wrap;html=1;" vertex="1" parent="1">
          <mxGeometry x="654" y="470" width="120" height="60" as="geometry" />
        </mxCell>
        <mxCell id="ULaO3nTSBAobQEeE-iv7-23" value="" style="endArrow=classic;html=1;rounded=0;entryX=0.5;entryY=0;entryDx=0;entryDy=0;exitX=0.5;exitY=1;exitDx=0;exitDy=0;" edge="1" parent="1" source="ULaO3nTSBAobQEeE-iv7-5" target="ULaO3nTSBAobQEeE-iv7-22">
          <mxGeometry width="50" height="50" relative="1" as="geometry">
            <mxPoint x="570" y="530" as="sourcePoint" />
            <mxPoint x="620" y="480" as="targetPoint" />
          </mxGeometry>
        </mxCell>
        <mxCell id="ULaO3nTSBAobQEeE-iv7-24" value="Риск: Утечка данных&amp;nbsp; (критический)&lt;div&gt;Риск: Искажение данных (значительный)&lt;/div&gt;&lt;div&gt;Риск: Потеря данных&lt;/div&gt;&lt;div&gt;(критический)&lt;/div&gt;&lt;div&gt;Риск: Обесценивание данных&amp;nbsp;&lt;span style=&quot;background-color: transparent; color: light-dark(rgb(0, 0, 0), rgb(255, 255, 255));&quot;&gt;(значительный)&amp;nbsp;&lt;/span&gt;&lt;span style=&quot;background-color: transparent; color: light-dark(rgb(0, 0, 0), rgb(255, 255, 255));&quot;&gt;&amp;nbsp;&lt;/span&gt;&lt;/div&gt;" style="rounded=0;whiteSpace=wrap;html=1;align=left;" vertex="1" parent="1">
          <mxGeometry x="654" y="560" width="156" height="140" as="geometry" />
        </mxCell>
        <mxCell id="ULaO3nTSBAobQEeE-iv7-25" value="" style="endArrow=classic;html=1;rounded=0;entryX=0.5;entryY=0;entryDx=0;entryDy=0;exitX=0.5;exitY=1;exitDx=0;exitDy=0;edgeStyle=orthogonalEdgeStyle;" edge="1" parent="1" source="ULaO3nTSBAobQEeE-iv7-22" target="ULaO3nTSBAobQEeE-iv7-24">
          <mxGeometry width="50" height="50" relative="1" as="geometry">
            <mxPoint x="570" y="530" as="sourcePoint" />
            <mxPoint x="620" y="480" as="targetPoint" />
          </mxGeometry>
        </mxCell>
      </root>
    </mxGraphModel>
  </diagram>
</mxfile>
